<svg width="1440" height="312" viewBox="0 0 1440 312" fill="none" xmlns="http://www.w3.org/2000/svg">
<path d="M80.7853 23.6603C101.089 23.6603 118.776 27.6562 133.847 35.6481C148.917 43.64 160.639 55.4176 169.012 70.9808C177.384 86.544 181.571 105.367 181.571 127.45V248.275H130.707V195.276H30.2356V248.275H-20V127.45C-20 105.367 -15.8137 86.544 -7.44109 70.9808C0.931517 55.4176 12.6532 43.64 27.7239 35.6481C42.7946 27.6562 60.4817 23.6603 80.7853 23.6603ZM130.707 154.265V122.718C130.707 104.421 126.207 90.6451 117.206 81.3913C108.206 71.9272 95.9606 67.1952 80.4713 67.1952C64.7726 67.1952 52.423 71.9272 43.4225 81.3913C34.6313 90.6451 30.2356 104.421 30.2356 122.718V154.265H130.707Z" fill="#FAFAFA"/>
<path d="M228.321 78.5521H277.3V248.275H228.321V78.5521ZM252.81 54.8918C243.81 54.8918 236.484 52.2629 230.832 47.0051C225.181 41.7472 222.355 35.2275 222.355 27.4459C222.355 19.6643 225.181 13.1446 230.832 7.88677C236.484 2.62892 243.81 0 252.81 0C261.811 0 269.137 2.52377 274.789 7.5713C280.44 12.6188 283.266 18.9282 283.266 26.4995C283.266 34.7017 280.44 41.5369 274.789 47.0051C269.137 52.2629 261.811 54.8918 252.81 54.8918Z" fill="#FAFAFA"/>
<path d="M369.54 100.95C375.4 92.7482 383.25 86.544 393.088 82.3377C403.135 78.1315 414.647 76.0283 427.625 76.0283V121.456C422.182 121.035 418.519 120.825 416.636 120.825C402.611 120.825 391.622 124.821 383.668 132.813C375.714 140.595 371.737 152.372 371.737 168.146V248.275H322.758V78.5521H369.54V100.95Z" fill="#FAFAFA"/>
<path d="M622.56 252.061C605.187 252.061 588.337 249.747 572.01 245.12C555.893 240.283 542.916 234.079 533.078 226.508L550.346 188.02C559.765 194.961 570.964 200.534 583.941 204.74C596.919 208.946 609.896 211.05 622.874 211.05C637.317 211.05 647.992 208.946 654.899 204.74C661.807 200.324 665.26 194.54 665.26 187.389C665.26 182.131 663.167 177.82 658.981 174.455C655.004 170.88 649.771 168.04 643.282 165.937C637.003 163.834 628.421 161.521 617.536 158.997C600.791 155.001 587.081 151.005 576.406 147.009C565.731 143.013 556.521 136.599 548.776 127.765C541.241 118.932 537.473 107.155 537.473 92.4328C537.473 79.6037 540.927 68.0364 547.834 57.731C554.742 47.2154 565.103 38.908 578.918 32.8089C592.942 26.7098 610.001 23.6603 630.095 23.6603C644.119 23.6603 657.83 25.3428 671.226 28.7078C684.622 32.0728 696.344 36.91 706.391 43.2194L690.692 82.0223C670.388 70.455 650.085 64.6714 629.781 64.6714C615.548 64.6714 604.977 66.9848 598.07 71.6117C591.372 76.2386 588.023 82.3377 588.023 89.909C588.023 97.4803 591.895 103.159 599.64 106.944C607.594 110.52 619.63 114.095 635.747 117.67C652.492 121.666 666.202 125.662 676.877 129.658C687.552 133.654 696.658 139.964 704.193 148.586C711.938 157.209 715.81 168.882 715.81 183.604C715.81 196.222 712.251 207.79 705.135 218.305C698.227 228.611 687.762 236.813 673.738 242.912C659.713 249.011 642.654 252.061 622.56 252.061Z" fill="#FAFAFA"/>
<path d="M848.839 240.073C844.024 243.648 838.059 246.382 830.942 248.275C824.035 249.958 816.813 250.799 809.278 250.799C788.974 250.799 773.38 245.646 762.496 235.341C751.612 225.035 746.17 209.893 746.17 189.913V41.0111H795.149V82.3377H836.908V120.194H795.149V189.282C795.149 196.433 796.928 202.006 800.487 206.002C804.045 209.788 809.173 211.681 815.872 211.681C823.407 211.681 830.105 209.577 835.966 205.371L848.839 240.073Z" fill="#FAFAFA"/>
<path d="M1046.68 78.5521V219.883C1046.68 251.009 1038.83 274.144 1023.13 289.286C1007.43 304.429 984.614 312 954.682 312C938.774 312 923.703 310.002 909.47 306.006C895.446 302.01 883.619 296.227 873.991 288.655L893.457 253.323C900.574 259.211 909.26 263.838 919.517 267.203C929.773 270.568 940.134 272.251 950.6 272.251C966.927 272.251 978.858 268.465 986.393 260.894C993.928 253.323 997.696 241.755 997.696 226.192V220.514C991.417 226.823 983.986 231.66 975.404 235.025C966.822 238.39 957.612 240.073 947.774 240.073C925.587 240.073 908.005 233.763 895.027 221.145C882.049 208.315 875.561 189.177 875.561 163.729V78.5521H924.54V156.473C924.54 184.024 935.948 197.8 958.763 197.8C970.485 197.8 979.904 194.014 987.021 186.443C994.138 178.661 997.696 167.199 997.696 152.057V78.5521H1046.68Z" fill="#FAFAFA"/>
<path d="M1152.65 250.799C1133.6 250.799 1118.74 245.751 1108.06 235.656C1097.39 225.351 1092.05 210.839 1092.05 192.121V14.1962H1141.03V189.282C1141.03 196.433 1142.81 202.006 1146.37 206.002C1150.14 209.788 1155.37 211.681 1162.07 211.681C1164.58 211.681 1167.09 211.365 1169.6 210.734C1172.32 210.103 1174.42 209.367 1175.88 208.526L1178.08 246.698C1169.92 249.432 1161.44 250.799 1152.65 250.799Z" fill="#FAFAFA"/>
<path d="M1284.15 211.365C1292.94 211.365 1300.68 210.103 1307.38 207.579C1314.29 204.845 1320.67 200.639 1326.53 194.961L1352.59 223.353C1336.69 241.65 1313.45 250.799 1282.89 250.799C1263.84 250.799 1246.99 247.118 1232.34 239.757C1217.69 232.186 1206.39 221.776 1198.43 208.526C1190.48 195.276 1186.5 180.239 1186.5 163.414C1186.5 146.799 1190.37 131.867 1198.12 118.617C1206.07 105.157 1216.85 94.7462 1230.46 87.3852C1244.27 79.814 1259.76 76.0283 1276.93 76.0283C1293.04 76.0283 1307.7 79.4985 1320.88 86.4388C1334.07 93.1689 1344.53 103.054 1352.28 116.093C1360.23 128.922 1364.21 144.17 1364.21 161.836L1239.25 186.127C1242.81 194.54 1248.35 200.849 1255.89 205.056C1263.63 209.262 1273.05 211.365 1284.15 211.365ZM1276.93 113.254C1264.58 113.254 1254.53 117.25 1246.78 125.242C1239.04 133.234 1234.96 144.275 1234.54 158.366L1316.8 142.277C1314.5 133.444 1309.79 126.398 1302.67 121.141C1295.55 115.883 1286.97 113.254 1276.93 113.254Z" fill="#FAFAFA"/>
<path d="M1443.92 100.95C1449.78 92.7482 1457.63 86.544 1467.46 82.3377C1477.51 78.1315 1489.02 76.0283 1502 76.0283V121.456C1496.56 121.035 1492.89 120.825 1491.01 120.825C1476.99 120.825 1466 124.821 1458.04 132.813C1450.09 140.595 1446.11 152.372 1446.11 168.146V248.275H1397.13V78.5521H1443.92V100.95Z" fill="#FAFAFA"/>
</svg>
