<svg width="31" height="32" viewBox="0 0 31 32" fill="none" xmlns="http://www.w3.org/2000/svg">
<path fill-rule="evenodd" clip-rule="evenodd" d="M15.5065 0.160156C19.44 0.160156 22.6473 3.34419 22.6901 7.27248L23.0386 7.2741C27.4294 7.2741 31 10.8431 31 15.2308V23.9998C31 28.3859 27.4294 31.9549 23.0386 31.9549H7.96144C3.57215 31.9549 0 28.3859 0 23.9998V15.2308C0 10.8431 3.57215 7.2741 7.96144 7.2741L8.28574 7.27267L8.29582 6.9635C8.39566 5.16 9.13843 3.50551 10.413 2.24431C11.777 0.891438 13.6084 0.215797 15.5065 0.160156ZM23.0386 9.65871L22.6904 9.65728L22.6906 12.1723C22.6906 12.8304 22.1564 13.3646 21.4983 13.3646C20.8401 13.3646 20.306 12.8304 20.306 12.1723L20.3058 9.65728H10.6688L10.6689 12.1723C10.6689 12.8304 10.1348 13.3646 9.47662 13.3646C8.81847 13.3646 8.28431 12.8304 8.28431 12.1723L8.28415 9.65728L7.96144 9.65871C4.88687 9.65871 2.38462 12.1578 2.38462 15.2308V23.9998C2.38462 27.0712 4.88687 29.5702 7.96144 29.5702H23.0386C26.1131 29.5702 28.6154 27.0712 28.6154 23.9998V15.2308C28.6154 12.1578 26.1131 9.65871 23.0386 9.65871ZM15.5017 2.54477C14.2125 2.58928 13.0043 3.03441 12.0917 3.93739C11.1925 4.82882 10.6885 6.01052 10.6695 7.27251L20.3026 7.27267L20.2978 7.07018C20.1515 4.55071 18.0572 2.54477 15.5017 2.54477Z" fill="#888888"/>
</svg>
