<svg width="26" height="32" viewBox="0 0 26 32" fill="none" xmlns="http://www.w3.org/2000/svg">
<path fill-rule="evenodd" clip-rule="evenodd" d="M13 0.830078C20.1681 0.830078 26 6.70608 26 13.9294C26 22.8087 15.8269 31.5574 13 31.5574C10.1731 31.5574 0 22.8087 0 13.9294C0 6.70608 5.83188 0.830078 13 0.830078ZM13 3.19371C7.13503 3.19371 2.36364 8.01081 2.36364 13.9294C2.36364 21.4599 11.2257 28.7966 13 29.1874C14.7743 28.795 23.6364 21.4583 23.6364 13.9294C23.6364 8.01081 18.865 3.19371 13 3.19371ZM13.0016 8.70887C15.8253 8.70887 18.1228 11.0063 18.1228 13.8317C18.1228 16.6554 15.8253 18.9513 13.0016 18.9513C10.1778 18.9513 7.88036 16.6554 7.88036 13.8317C7.88036 11.0063 10.1778 8.70887 13.0016 8.70887ZM13.0016 11.0725C11.481 11.0725 10.244 12.3095 10.244 13.8317C10.244 15.3523 11.481 16.5877 13.0016 16.5877C14.5222 16.5877 15.7592 15.3523 15.7592 13.8317C15.7592 12.3095 14.5222 11.0725 13.0016 11.0725Z" fill="#888888"/>
</svg>
