<svg width="30" height="30" viewBox="0 0 30 30" fill="none" xmlns="http://www.w3.org/2000/svg">
<path fill-rule="evenodd" clip-rule="evenodd" d="M28.8462 26.8294C29.4831 26.8294 30 27.3463 30 27.9832C30 28.6201 29.4831 29.137 28.8462 29.137H17.688C17.0511 29.137 16.5342 28.6201 16.5342 27.9832C16.5342 27.3463 17.0511 26.8294 17.688 26.8294H28.8462ZM21.7168 1.00558C21.7937 1.06558 24.3675 3.06553 24.3675 3.06553C25.3029 3.62244 26.0336 4.6178 26.3105 5.79623C26.5859 6.96236 26.3859 8.16541 25.7444 9.1823C25.7401 9.18909 25.7359 9.19579 25.721 9.21572L25.7094 9.23112C25.6053 9.36836 25.1526 9.94073 22.868 12.8031C22.8468 12.8406 22.8227 12.8758 22.7965 12.9099C22.758 12.9602 22.716 13.0065 22.6713 13.0486C22.5154 13.2448 22.3508 13.451 22.1778 13.6677L21.8271 14.1069C21.1036 15.013 20.2454 16.0874 19.2273 17.3618L18.7048 18.0158C16.7392 20.476 14.2219 23.626 10.9971 27.6603C10.2909 28.5403 9.2325 29.0526 8.09561 29.0664L2.49728 29.1372H2.4819C1.94807 29.1372 1.48346 28.7711 1.35885 28.2495L0.0988811 22.9097C-0.161113 21.8035 0.0973427 20.662 0.806556 19.7759L15.2985 1.65018C15.3047 1.64403 15.3093 1.63633 15.3154 1.63018C16.9046 -0.269774 19.7784 -0.549767 21.7168 1.00558ZM13.6827 7.36444L2.60805 21.2174C2.34498 21.5466 2.24806 21.9712 2.34498 22.3789L3.39265 26.8173L8.06792 26.7588C8.51252 26.7542 8.92328 26.5557 9.19558 26.2173C10.5978 24.4628 12.3602 22.2577 14.1722 19.9903L14.8132 19.1881L15.4554 18.3845C17.1547 16.2579 18.8335 14.1567 20.2382 12.3979L13.6827 7.36444ZM17.0923 3.10245L15.1242 5.5614L21.6791 10.5935C22.9408 9.01316 23.7708 7.97233 23.8475 7.8731C24.0998 7.46388 24.1983 6.88544 24.066 6.32853C23.9306 5.75777 23.5752 5.27317 23.0629 4.96394C22.9537 4.88856 20.3615 2.8763 20.2815 2.81323C19.3061 2.03171 17.8831 2.16709 17.0923 3.10245Z" fill="#888888"/>
</svg>
