<svg width="30" height="29" viewBox="0 0 30 29" fill="none" xmlns="http://www.w3.org/2000/svg">
<path fill-rule="evenodd" clip-rule="evenodd" d="M6.47277 0.0583679C8.02524 0.0792157 9.13156 1.24252 10.5311 2.71438C10.8772 3.07713 11.2511 3.47324 11.6694 3.89019C13.6972 5.91938 13.1204 7.57469 12.6548 8.90339C12.1489 10.353 11.7111 11.6039 14.3324 14.2251C16.9537 16.8464 18.2031 16.4086 19.6514 15.8985C20.9814 15.4343 22.6326 14.8533 24.6646 16.8825C25.0773 17.2953 25.4665 17.665 25.8279 18.0083C27.3053 19.4148 28.4727 20.5253 28.4924 22.082C28.5075 23.4079 27.7014 24.7616 25.7111 26.7519L24.8299 26.1542L25.5763 26.8811C25.1357 27.3328 23.9641 28.5364 21.6694 28.5503H21.6277C18.1642 28.5503 13.6486 25.7929 8.20592 20.3516C2.74102 14.8881 -0.0206148 10.3586 0.000115848 6.8881C0.0127417 4.59485 1.21496 3.42042 1.66667 2.97984L1.70522 2.93773L1.7987 2.84363C3.79314 0.849194 5.16353 0.029181 6.47277 0.0583679ZM6.44637 2.14315H6.43525C5.81112 2.14315 4.86328 2.76858 3.54134 4.05266L3.27588 4.31335L3.27889 4.31271C3.27889 4.31271 3.25621 4.33872 3.21755 4.37815L3.12462 4.47115C2.78828 4.79776 2.09196 5.4774 2.08494 6.89922C2.07389 8.8881 3.38174 12.5809 9.67916 18.877C15.946 25.1424 19.6333 26.4656 21.6277 26.4656H21.6569C23.0787 26.4572 23.757 25.7609 24.0836 25.426C24.1823 25.3245 24.2629 25.2481 24.3199 25.2022C25.7056 23.8082 26.4144 22.7727 26.4075 22.107C26.3991 21.4287 25.5554 20.6282 24.3894 19.5177C24.0183 19.1661 23.6152 18.7811 23.1899 18.3558C22.0864 17.2564 21.5429 17.444 20.3407 17.8665C18.6798 18.4489 16.4047 19.2467 12.8591 15.6984C9.31224 12.1529 10.1072 9.87768 10.6868 8.21541C11.1065 7.01458 11.2983 6.46837 10.1962 5.36482C9.76534 4.93397 9.37757 4.52535 9.02037 4.15009C7.91683 2.99096 7.12045 2.15288 6.44637 2.14315ZM18.4104 5.00277C21.3026 5.56427 23.5361 7.79637 24.099 10.69C24.2088 11.2571 23.8405 11.8033 23.2762 11.9131C23.2081 11.9256 23.1414 11.9326 23.0747 11.9326C22.5855 11.9326 22.1504 11.5879 22.0532 11.0903C21.6529 9.03334 20.0671 7.44752 18.0129 7.04863C17.4472 6.93883 17.0789 6.39262 17.1887 5.82695C17.2985 5.26128 17.8544 4.89158 18.4104 5.00277ZM18.3271 0.0662901C23.9949 0.695893 28.3966 5.092 29.0317 10.7584C29.0957 11.331 28.6843 11.8467 28.1131 11.9106C28.0741 11.9148 28.0338 11.9176 27.9949 11.9176C27.4709 11.9176 27.0206 11.5242 26.9609 10.9919C26.4341 6.29978 22.7899 2.65836 18.0964 2.13717C17.5252 2.07324 17.1124 1.55899 17.1763 0.986372C17.2388 0.415143 17.7489 -0.00598226 18.3271 0.0662901Z" fill="#888888"/>
</svg>
