<svg width="180" height="180" viewBox="0 0 180 180" fill="none" xmlns="http://www.w3.org/2000/svg">
<rect width="180" height="180" fill="#090909"/>
<path d="M89.536 112.864C85.552 112.864 81.688 112.336 77.944 111.28C74.248 110.176 71.272 108.76 69.016 107.032L72.976 98.248C75.136 99.832 77.704 101.104 80.68 102.064C83.656 103.024 86.632 103.504 89.608 103.504C92.92 103.504 95.368 103.024 96.952 102.064C98.536 101.056 99.328 99.736 99.328 98.104C99.328 96.904 98.848 95.92 97.888 95.152C96.976 94.336 95.776 93.688 94.288 93.208C92.848 92.728 90.88 92.2 88.384 91.624C84.544 90.712 81.4 89.8 78.952 88.888C76.504 87.976 74.392 86.512 72.616 84.496C70.888 82.48 70.024 79.792 70.024 76.432C70.024 73.504 70.816 70.864 72.4 68.512C73.984 66.112 76.36 64.216 79.528 62.824C82.744 61.432 86.656 60.736 91.264 60.736C94.48 60.736 97.624 61.12 100.696 61.888C103.768 62.656 106.456 63.76 108.76 65.2L105.16 74.056C100.504 71.416 95.848 70.096 91.192 70.096C87.928 70.096 85.504 70.624 83.92 71.68C82.384 72.736 81.616 74.128 81.616 75.856C81.616 77.584 82.504 78.88 84.28 79.744C86.104 80.56 88.864 81.376 92.56 82.192C96.4 83.104 99.544 84.016 101.992 84.928C104.44 85.84 106.528 87.28 108.256 89.248C110.032 91.216 110.92 93.88 110.92 97.24C110.92 100.12 110.104 102.76 108.472 105.16C106.888 107.512 104.488 109.384 101.272 110.776C98.056 112.168 94.144 112.864 89.536 112.864Z" fill="white"/>
</svg>
