<svg width="117" height="24" viewBox="0 0 117 24" fill="none" xmlns="http://www.w3.org/2000/svg">
<path d="M7.74762 1.82002C9.3084 1.82002 10.6681 2.1274 11.8266 2.74216C12.9851 3.35693 13.8862 4.26289 14.5298 5.46006C15.1734 6.65723 15.4952 8.10516 15.4952 9.80384V19.0981H11.5852V15.0212H3.86174V19.0981H0V9.80384C0 8.10516 0.321812 6.65723 0.965435 5.46006C1.60906 4.26289 2.51013 3.35693 3.66865 2.74216C4.82718 2.1274 6.18683 1.82002 7.74762 1.82002ZM11.5852 11.8665V9.43984C11.5852 8.03236 11.2393 6.9727 10.5474 6.26087C9.85548 5.53286 8.91418 5.16886 7.72348 5.16886C6.51669 5.16886 5.56734 5.53286 4.87545 6.26087C4.19964 6.9727 3.86174 8.03236 3.86174 9.43984V11.8665H11.5852Z" fill="#080808"/>
<path d="M19.089 6.04247H22.8542V19.0981H19.089V6.04247ZM20.9716 4.22245C20.2797 4.22245 19.7166 4.02022 19.2821 3.61577C18.8477 3.21132 18.6304 2.70981 18.6304 2.11122C18.6304 1.51264 18.8477 1.01112 19.2821 0.606674C19.7166 0.202225 20.2797 0 20.9716 0C21.6635 0 22.2267 0.194136 22.6611 0.582408C23.0956 0.970678 23.3128 1.45602 23.3128 2.03842C23.3128 2.66936 23.0956 3.19515 22.6611 3.61577C22.2267 4.02022 21.6635 4.22245 20.9716 4.22245Z" fill="#080808"/>
<path d="M29.9449 7.76542C30.3954 7.13448 30.9988 6.65723 31.7551 6.33367C32.5274 6.01011 33.4124 5.84833 34.41 5.84833V9.34277C33.9917 9.31042 33.7101 9.29424 33.5653 9.29424C32.4872 9.29424 31.6425 9.60162 31.031 10.2164C30.4196 10.815 30.1138 11.7209 30.1138 12.9343V19.0981H26.3486V6.04247H29.9449V7.76542Z" fill="#080808"/>
<path d="M49.3952 19.3893C48.0597 19.3893 46.7644 19.2113 45.5093 18.8554C44.2704 18.4833 43.2727 18.0061 42.5165 17.4237L43.844 14.4631C44.568 14.997 45.4289 15.4257 46.4265 15.7492C47.4241 16.0728 48.4217 16.2346 49.4193 16.2346C50.5296 16.2346 51.3502 16.0728 51.8812 15.7492C52.4122 15.4095 52.6777 14.9646 52.6777 14.4146C52.6777 14.0101 52.5168 13.6785 52.195 13.4196C51.8892 13.1446 51.487 12.9262 50.9882 12.7644C50.5055 12.6026 49.8457 12.4247 49.009 12.2305C47.7218 11.9232 46.6679 11.6158 45.8472 11.3084C45.0266 11.001 44.3186 10.5076 43.7233 9.82811C43.144 9.14864 42.8544 8.24267 42.8544 7.11021C42.8544 6.12336 43.1199 5.23357 43.6509 4.44085C44.1819 3.63195 44.9783 2.99292 46.0403 2.52376C47.1184 2.0546 48.4298 1.82002 49.9745 1.82002C51.0525 1.82002 52.1065 1.94944 53.1363 2.20829C54.1661 2.46714 55.0671 2.83923 55.8395 3.32457L54.6327 6.3094C53.0719 5.41962 51.5111 4.97472 49.9503 4.97472C48.8562 4.97472 48.0436 5.15268 47.5126 5.5086C46.9977 5.86451 46.7403 6.33367 46.7403 6.91608C46.7403 7.49848 47.0379 7.93529 47.6333 8.22649C48.2447 8.50152 49.1699 8.77654 50.4089 9.05157C51.6962 9.35895 52.7501 9.66633 53.5707 9.97371C54.3913 10.2811 55.0913 10.7664 55.6705 11.4297C56.2659 12.093 56.5636 12.9909 56.5636 14.1234C56.5636 15.094 56.29 15.9838 55.7429 16.7927C55.212 17.5854 54.4074 18.2164 53.3294 18.6855C52.2513 19.1547 50.9399 19.3893 49.3952 19.3893Z" fill="#080808"/>
<path d="M66.7898 18.4671C66.4197 18.7422 65.9612 18.9525 65.4141 19.0981C64.8831 19.2275 64.328 19.2922 63.7487 19.2922C62.1879 19.2922 60.9892 18.8959 60.1525 18.1031C59.3157 17.3104 58.8974 16.1456 58.8974 14.6087V3.1547H62.6626V6.33367H65.8727V9.2457H62.6626V14.5602C62.6626 15.1102 62.7994 15.5389 63.0729 15.8463C63.3464 16.1375 63.7407 16.2831 64.2556 16.2831C64.8348 16.2831 65.3497 16.1213 65.8003 15.7978L66.7898 18.4671Z" fill="#080808"/>
<path d="M81.9981 6.04247V16.9141C81.9981 19.3084 81.3947 21.088 80.1879 22.2528C78.9811 23.4176 77.2272 24 74.9263 24C73.7034 24 72.5449 23.8463 71.4507 23.5389C70.3726 23.2315 69.4635 22.7867 68.7233 22.2042L70.2198 19.4864C70.7668 19.9393 71.4346 20.2952 72.223 20.5541C73.0115 20.8129 73.808 20.9424 74.6125 20.9424C75.8676 20.9424 76.7847 20.6512 77.364 20.0688C77.9432 19.4864 78.2329 18.5966 78.2329 17.3994V16.9626C77.7502 17.4479 77.1789 17.82 76.5192 18.0789C75.8595 18.3377 75.1515 18.4671 74.3953 18.4671C72.6897 18.4671 71.3381 17.9818 70.3404 17.0111C69.3428 16.0243 68.844 14.5521 68.844 12.5945V6.04247H72.6092V12.0364C72.6092 14.1557 73.4861 15.2154 75.24 15.2154C76.1411 15.2154 76.8652 14.9242 77.4122 14.3418C77.9593 13.7432 78.2329 12.8615 78.2329 11.6967V6.04247H81.9981Z" fill="#080808"/>
<path d="M90.1445 19.2922C88.6802 19.2922 87.5378 18.9039 86.7172 18.1274C85.8966 17.3347 85.4863 16.2184 85.4863 14.7786V1.09201H89.2515V14.5602C89.2515 15.1102 89.3882 15.5389 89.6618 15.8463C89.9514 16.1375 90.3537 16.2831 90.8686 16.2831C91.0617 16.2831 91.2547 16.2588 91.4478 16.2103C91.657 16.1618 91.8179 16.1052 91.9305 16.0404L92.0995 18.9767C91.472 19.1871 90.8203 19.2922 90.1445 19.2922Z" fill="#080808"/>
<path d="M100.253 16.2588C100.929 16.2588 101.524 16.1618 102.039 15.9676C102.57 15.7573 103.061 15.4338 103.511 14.997L105.515 17.181C104.292 18.5885 102.506 19.2922 100.157 19.2922C98.6923 19.2922 97.397 19.0091 96.2707 18.4429C95.1443 17.8605 94.2754 17.0597 93.664 16.0404C93.0526 15.0212 92.7468 13.8645 92.7468 12.5703C92.7468 11.2922 93.0445 10.1436 93.6399 9.12437C94.2513 8.08898 95.08 7.28817 96.1259 6.72194C97.1878 6.13954 98.3785 5.84833 99.698 5.84833C100.937 5.84833 102.063 6.11527 103.077 6.64914C104.091 7.16684 104.895 7.9272 105.491 8.93023C106.102 9.91709 106.408 11.09 106.408 12.4489L96.8017 14.3175C97.0752 14.9646 97.5016 15.45 98.0809 15.7735C98.6762 16.0971 99.4003 16.2588 100.253 16.2588ZM99.698 8.71183C98.7486 8.71183 97.9763 9.01921 97.3809 9.63397C96.7856 10.2487 96.4718 11.0981 96.4396 12.182L102.763 10.9444C102.586 10.2649 102.224 9.72295 101.677 9.3185C101.13 8.91405 100.47 8.71183 99.698 8.71183Z" fill="#080808"/>
<path d="M112.535 7.76542C112.985 7.13448 113.589 6.65723 114.345 6.33367C115.117 6.01011 116.002 5.84833 117 5.84833V9.34277C116.582 9.31042 116.3 9.29424 116.155 9.29424C115.077 9.29424 114.232 9.60162 113.621 10.2164C113.01 10.815 112.704 11.7209 112.704 12.9343V19.0981H108.939V6.04247H112.535V7.76542Z" fill="#080808"/>
</svg>
